{"title":"Nas - Daughters - 720pHD{ECS}","uid":7459594,"size":51198126,"categoryP":"video","categoryS":"music_videos","magnet":"?xt=urn:btih:24a0229c4750aedd11d8165204fe6c30c16fa524&amp;dn=Nas+-+Daughters+-+720pHD%7BECS%7D&amp;tr=udp%3A%2F%2Ftracker.openbittorrent.com%3A80&amp;tr=udp%3A%2F%2Fopen.demonii.com%3A1337&amp;tr=udp%3A%2F%2Ftracker.coppersurfer.tk%3A6969&amp;tr=udp%3A%2F%2Fexodus.desync.com%3A6969","seeders":1,"leechers":0,"uploader":"sameer_ecs","files":4,"time":1342777840,"description":"\nGeneral\nComplete name : Nas - Daughters - 720pHD{ECS}.mp4\nFormat : MPEG-4\nFormat profile : Base Media / Version 2\nCodec ID : mp42\nFile size : 48.4 MiB\nDuration : 3mn 38s\nOverall bit rate mode : Variable\nOverall bit rate : 1 859 Kbps\n\nVideo\nID : 1\nFormat : AVC\nFormat/Info : Advanced Video Codec\nFormat profile : &lt;a class=&quot;__cf_email__&quot; href=&quot;/cdn-cgi/l/email-protection&quot; data-cfemail=&quot;7e361719163e324d504f&quot;&gt;[email&amp;#160;protected]&lt;/a&gt;&lt;script cf-hash='f9e31' type=&quot;text/javascript&quot;&gt;\n/* &lt;![CDATA[ */!function(){try{var t=&quot;currentScript&quot;in document?document.currentScript:function(){for(var t=document.getElementsByTagName(&quot;script&quot;),e=t.length;e--;)if(t[e].getAttribute(&quot;cf-hash&quot;))return t[e]}();if(t&amp;&amp;t.previousSibling){var e,r,n,i,c=t.previousSibling,a=c.getAttribute(&quot;data-cfemail&quot;);if(a){for(e=&quot;&quot;,r=parseInt(a.substr(0,2),16),n=2;a.length-n;n+=2)i=parseInt(a.substr(n,2),16)^r,e+=String.fromCharCode(i);e=document.createTextNode(e),c.parentNode.replaceChild(e,c)}}}catch(u){}}();/* ]]&gt; */&lt;/script&gt;\nFormat settings, CABAC : Yes\nFormat settings, ReFrames : 1 frame\nCodec ID : avc1\nCodec ID/Info : Advanced Video Coding\nDuration : 3mn 38s\nBit rate : 1 709 Kbps\nMaximum bit rate : 9 885 Kbps\nWidth : 1 280 pixels\nHeight : 720 pixels\nDisplay aspect ratio : 16:9\nFrame rate mode : Constant\nFrame rate : 23.976 fps\nColor space : YUV\nChroma subsampling : 4:2:0\nBit depth : 8 bits\nScan type : Progressive\nBits/(Pixel*Frame) : 0.077\nStream size : 44.5 MiB (92%)\nTagged date : UTC 2012-05-31 18:42:26\n\nAudio\nID : 2\nFormat : AAC\nFormat/Info : Advanced Audio Codec\nFormat profile : LC\nCodec ID : 40\nDuration : 3mn 38s\nBit rate mode : Variable\nBit rate : 148 Kbps\nMaximum bit rate : 197 Kbps\nChannel(s) : 2 channels\nChannel positions : Front: L R\nSampling rate : 44.1 KHz\nCompression mode : Lossy\nStream size : 3.85 MiB (8%)\n\nScreenshots &lt;a href=&quot;\nhttp://i1271.photobucket.com/albums/jj629/sameer_ecs/Nas-Daughters-720pHDECSmp4_thumbs_20120720_130116.jpg&quot; rel=&quot;nofollow&quot; target=&quot;_NEW&quot;&gt;\nhttp://i1271.photobucket.com/albums/jj629/sameer_ecs/Nas-Daughters-720pHDECSmp4_thumbs_20120720_130116.jpg&lt;/a&gt;","torrent":{"xt":"urn:btih:24a0229c4750aedd11d8165204fe6c30c16fa524","amp;dn":"Nas+-+Daughters+-+720pHD%7BECS%7D","amp;tr":["udp%3A%2F%2Ftracker.openbittorrent.com%3A80","udp%3A%2F%2Fopen.demonii.com%3A1337","udp%3A%2F%2Ftracker.coppersurfer.tk%3A6969","udp%3A%2F%2Fexodus.desync.com%3A6969"],"infoHash":"24a0229c4750aedd11d8165204fe6c30c16fa524","infoHashBuffer":{"type":"Buffer","data":[36,160,34,156,71,80,174,221,17,216,22,82,4,254,108,48,193,111,165,36]},"announce":[],"urlList":[]}}